<svg version="1.1" xmlns="http://www.w3.org/2000/svg" xmlns:xlink="http://www.w3.org/1999/xlink" width="185.58559" height="64.67377" viewBox="0,0,185.58559,64.67377"><g transform="translate(-149.26977,-176.59495)"><g data-paper-data="{&quot;isPaintingLayer&quot;:true}" fill-rule="nonzero" stroke-linecap="butt" stroke-linejoin="miter" stroke-miterlimit="10" stroke-dasharray="" stroke-dashoffset="0" style="mix-blend-mode: normal"><path d="M156.73036,227.14868c0,-8.33371 0,-32.57394 0,-38.17494c0,-2.04498 3.50906,-4.00663 7.7319,-4.00663c16.2737,0 119.70038,0 150.29426,0c5.38468,0 8.51315,1.74149 8.51315,3.60664c0,5.29589 0,28.37218 0,37.39683c0,1.96808 -3.4558,5.74563 -7.62645,5.74563c-17.18322,0 -128.81523,-0.19999 -151.18094,-0.19999c-2.41417,0 -7.7319,-2.76321 -7.7319,-4.36755z" fill="#3edcff" stroke="#f5f500" stroke-width="0"/><path d="M157.02254,191.01901c0,-2.04498 3.21688,-6.05191 7.43972,-6.05191c16.2737,0 119.70038,0 150.29426,0c5.38468,0 8.48451,1.74171 8.51315,3.60664c0.29218,19.02845 0.39655,28.38089 0,37.39683c-0.29218,6.64299 -3.4558,5.74563 -7.62645,5.74563c-17.18322,0 -128.81523,-0.19999 -151.18094,-0.19999c-2.41417,0 -7.7319,-0.13357 -7.7319,-8.75028c0,-1.60434 0.29216,-26.14593 0.29216,-31.74693z" fill="#3edcff" stroke="#000000" stroke-width="2"/><text transform="translate(204.21825,216.52856) scale(0.63306,0.63306)" font-size="40" xml:space="preserve" fill="#ffffff" fill-rule="nonzero" stroke="#ffffff" stroke-width="3" stroke-linecap="butt" stroke-linejoin="miter" stroke-miterlimit="10" stroke-dasharray="" stroke-dashoffset="0" font-family="Sans Serif" font-weight="normal" text-anchor="start" style="mix-blend-mode: normal"><tspan x="0" dy="0">MENU</tspan></text><path d="M149.26977,241.26872v-64.67377h185.58559v64.67377z" fill="none" stroke="none" stroke-width="0"/></g></g></svg>